<svg width="168" height="168" viewBox="0 0 168 168" fill="none" xmlns="http://www.w3.org/2000/svg">
<g clip-path="url(#clip0)">
<path d="M19.6369 27.1138L25.7048 20.6068L32.4195 14.7698L39.7076 9.66663L47.4892 5.35323L55.679 1.87685L64.1874 -0.72441L72.921 -2.42206L81.7843 -3.1975L90.68 -3.04222L99.5108 -1.95793L108.18 0.0434802L116.592 2.94009L124.656 6.70018L132.282 11.2825L139.388 16.6369L145.895 22.7048L151.732 29.4195L156.835 36.7076L161.148 44.4892L164.625 52.679L167.226 61.1874L168.924 69.921L169.699 78.7843L169.544 87.68L168.459 96.5108L166.458 105.18L163.561 113.592L159.801 121.656L155.219 129.282L149.865 136.388L143.797 142.895L137.082 148.732L129.794 153.835L122.012 158.148L113.822 161.625L105.314 164.226L96.5804 165.924L87.7172 166.699L78.8214 166.544L69.9906 165.459L61.3215 163.458L52.9092 160.561L44.8456 156.801L37.2193 152.219L30.1138 146.865L23.6068 140.797L17.7698 134.082L12.6666 126.794L8.35323 119.012L4.87685 110.822L2.27559 102.314L0.577939 93.5804L-0.197495 84.7172L-0.0422164 75.8214L1.04207 66.9906L3.04348 58.3215L5.9401 49.9092L9.70018 41.8456L14.2825 34.2193L19.6369 27.1138Z" fill="#FFBA08"/>
<circle cx="84.7507" cy="81.7508" r="70" fill="#F5F8FA"/>
<rect x="-35" y="88" width="101" height="58" fill="#F5F8FA"/>
<path d="M53 162.326L105.326 110L141.388 146.062L89.0624 198.388L53 162.326Z" fill="#F5F8FA"/>
<rect y="111" width="128" height="86" fill="#F5F8FA"/>
</g>
<defs>
<clipPath id="clip0">
<rect width="168" height="168" rx="84" fill="white"/>
</clipPath>
</defs>
</svg>
